nColumns=19
nRows=48
DataType=double
version=3
OpenSimVersion=4.1
endheader
time	ground_force_calcn_r_vx	ground_force_calcn_r_vy	ground_force_calcn_r_vz	ground_force_calcn_r_px	ground_force_calcn_r_py	ground_force_calcn_r_pz	ground_force_calcn_r_mx	ground_force_calcn_r_my	ground_force_calcn_r_mz	ground_force_calcn_l_vx	ground_force_calcn_l_vy	ground_force_calcn_l_vz	ground_force_calcn_l_px	ground_force_calcn_l_py	ground_force_calcn_l_pz	ground_force_calcn_l_mx	ground_force_calcn_l_my	ground_force_calcn_l_mz
0.08	0	0	0	0	0	0	0	0	0	99.2086	1854.26	-33.5273	0.948098	0	-0.395878	-1.01247	-18.9235	0.34216
0.09	0	0	0	0	0	0	0	0	0	157.818	1756.64	-49.9631	0.92672	0	-0.39626	-0.471667	-5.25003	0.149323
0.1	0	0	0	0	0	0	0	0	0	220.924	1587.84	-64.7038	0.893463	0	-0.394964	0.889571	6.39359	-0.260536
0.11	0	0	0	0	0	0	0	0	0	268.389	1359.79	-72.3224	0.85453	0	-0.392842	2.7743	14.056	-0.747587
0.12	0	0	0	0	0	0	0	0	0	290.026	1098.64	-71.5155	0.815266	0	-0.390378	4.48293	16.9817	-1.10542
0.13	0	0	0	0	0	0	0	0	0	280.723	831.483	-63.0701	0.778062	0	-0.38737	5.32369	15.7684	-1.19607
0.14	0	0	0	0	0	0	0	0	0	242.753	580.576	-50.8245	0.742423	0	-0.385141	4.99451	11.945	-1.04568
0.15	0	0	0	0	0	0	0	0	0	184.483	366.896	-38.2758	0.707117	0	-0.384988	3.67252	7.30383	-0.761961
0.16	0	0	0	0	0	0	0	0	0	119.202	204.185	-26.4971	0.671573	0	-0.385959	1.90135	3.25687	-0.422643
0.17	0	0	0	0	0	0	0	0	0	62.2082	94.858	-16.7509	0.633423	0	-0.390253	0.308618	0.470595	-0.0831021
0.18	0	0	0	0	0	0	0	0	0	24.8527	34.5211	-10.0808	0.603371	0	-0.411682	-0.696524	-0.967489	0.282525
0.19	0	0	0	0	0	0	0	0	0	8.24693	11.356	-5.60994	0.667861	0	-0.431269	-0.966934	-1.33147	0.657753
0.2	0	0	0	0	0	0	0	0	0	0	0	0	0	0	0	0	0	0
0.21	0	0	0	0	0	0	0	0	0	0	0	0	0	0	0	0	0	0
0.22	0	0	0	0	0	0	0	0	0	0	0	0	0	0	0	0	0	0
0.23	0	0	0	0	0	0	0	0	0	0	0	0	0	0	0	0	0	0
0.24	0	0	0	0	0	0	0	0	0	0	0	0	0	0	0	0	0	0
0.25	0	0	0	0	0	0	0	0	0	0	0	0	0	0	0	0	0	0
0.26	-2.21147	20.4385	-8.26518	1.26504	0	-0.401619	-0.394285	3.64399	-1.47361	0	0	0	0	0	0	0	0	0
0.27	-13.0354	81.3573	-11.5813	1.24687	0	-0.421099	-0.679056	4.23815	-0.603307	0	0	0	0	0	0	0	0	0
0.28	-28.6764	261.779	-10.8793	1.25795	0	-0.420605	-0.401684	3.66686	-0.152391	0	0	0	0	0	0	0	0	0
0.29	-40.4801	612.979	-0.368407	1.25263	0	-0.415911	-0.138284	2.094	-0.00125852	0	0	0	0	0	0	0	0	0
0.3	-58.4768	1025.9	17.6995	1.23796	0	-0.412149	0.00437463	-0.0767468	-0.00132409	0	0	0	0	0	0	0	0	0
0.31	-101.42	1298.35	29.6739	1.22141	0	-0.411678	0.172923	-2.21372	-0.0505945	0	0	0	0	0	0	0	0	0
0.32	-154.365	1387.8	28.2499	1.20205	0	-0.412148	0.418694	-3.76422	-0.0766238	0	0	0	0	0	0	0	0	0
0.33	-193.975	1433.38	18.3986	1.17634	0	-0.41135	0.616014	-4.55205	-0.0584293	0	0	0	0	0	0	0	0	0
0.34	-208.419	1550.8	7.13819	1.14767	0	-0.410266	0.648315	-4.82399	-0.0222043	0	0	0	0	0	0	0	0	0
0.35	-186.566	1711.37	0.700845	1.11702	0	-0.409322	0.547826	-5.02523	-0.00205794	0	0	0	0	0	0	0	0	0
0.36	-141.373	1839.55	1.05444	1.08378	0	-0.409009	0.426485	-5.54944	-0.00318096	0	0	0	0	0	0	0	0	0
0.37	-82.716	1902.87	6.5911	1.04852	0	-0.409098	0.286859	-6.59915	-0.0228579	0	0	0	0	0	0	0	0	0
0.38	-19.3935	1903.19	15.4332	1.01305	0	-0.409596	0.0825741	-8.10343	-0.0657119	0	0	0	0	0	0	0	0	0
0.39	47.2275	1844	27.0146	0.977981	0	-0.410791	-0.249631	-9.74682	-0.142791	0	0	0	0	0	0	0	0	0
0.4	117.414	1729.11	40.8856	0.942125	0	-0.41261	-0.750236	-11.0485	-0.261246	0	0	0	0	0	0	0	0	0
0.41	190.01	1563.78	54.4025	0.904665	0	-0.414855	-1.39461	-11.4776	-0.399296	0	0	0	0	0	0	0	0	0
0.42	247.223	1352.51	63.7152	0.865918	0	-0.416957	-1.9479	-10.6566	-0.502019	0	0	0	0	0	0	0	0	0
0.43	272.027	1105	65.3586	0.827002	0	-0.418698	-2.10757	-8.56115	-0.506376	0	0	0	0	0	0	0	0	0
0.44	264.717	839.911	58.6894	0.788214	0	-0.420232	-1.74663	-5.54181	-0.387238	0	0	0	0	0	0	0	0	0
0.45	233.407	586.578	46.668	0.751064	0	-0.421026	-0.89691	-2.25403	-0.17933	0	0	0	0	0	0	0	0	0
0.46	185.641	372.17	33.4092	0.718838	0	-0.418749	0.264745	0.530755	0.0476451	0	0	0	0	0	0	0	0	0
0.47	129.137	208.964	21.2816	0.689046	0	-0.410174	1.39847	2.26294	0.230466	0	0	0	0	0	0	0	0	0
0.48	71.3712	99.8094	11.095	0.653922	0	-0.390472	2.11699	2.96051	0.329094	0	0	0	0	0	0	0	0	0
0.49	27.9704	39.5497	3.87181	0.625765	0	-0.339553	2.24599	3.17579	0.310901	0	0	0	0	0	0	0	0	0
0.5	5.83537	13.0409	0.274651	0.712724	0	-0.212441	1.61981	3.61996	0.0762389	0	0	0	0	0	0	0	0	0
0.51	0	0	0	0	0	0	0	0	0	0	0	0	0	0	0	0	0	0
0.52	0	0	0	0	0	0	0	0	0	0	0	0	0	0	0	0	0	0
0.53	0	0	0	0	0	0	0	0	0	0	0	0	0	0	0	0	0	0
0.54	0	0	0	0	0	0	0	0	0	0	0	0	0	0	0	0	0	0
0.55	0	0	0	0	0	0	0	0	0	0	0	0	0	0	0	0	0	0
